<svg xmlns="http://www.w3.org/2000/svg" viewBox="0 0 32 32">
  <defs>
    <linearGradient id="ballGradient" x1="0%" y1="0%" x2="100%" y2="100%">
      <stop offset="0%" style="stop-color:#10b981"/>
      <stop offset="100%" style="stop-color:#059669"/>
    </linearGradient>
  </defs>
  <!-- Background circle -->
  <circle cx="16" cy="16" r="15" fill="url(#ballGradient)"/>
  <!-- Football/Soccer ball pattern -->
  <circle cx="16" cy="16" r="12" fill="white" stroke="#09090b" stroke-width="0.5"/>
  <!-- Pentagon in center -->
  <polygon points="16,8 20.5,11.5 19,17 13,17 11.5,11.5" fill="#09090b"/>
  <!-- Partial pentagons around -->
  <polygon points="16,4 19,6.5 17.5,8 14.5,8 13,6.5" fill="#09090b"/>
  <polygon points="23,10 24,13.5 22,15 20,13 21,10" fill="#09090b"/>
  <polygon points="23,18 22,21 19,22 18,19.5 20,17.5" fill="#09090b"/>
  <polygon points="9,18 12,17.5 14,19.5 13,22 10,21" fill="#09090b"/>
  <polygon points="9,10 11,10 12,13 10,15 8,13.5" fill="#09090b"/>
  <!-- Spy element - small red circle with eye -->
  <circle cx="24" cy="24" r="7" fill="#ef4444"/>
  <circle cx="24" cy="24" r="5" fill="#09090b"/>
  <circle cx="24" cy="24" r="2.5" fill="white"/>
  <circle cx="24.5" cy="23.5" r="1" fill="#09090b"/>
</svg>

